<svg width="54" height="58" viewBox="0 0 54 58" fill="none" xmlns="http://www.w3.org/2000/svg">
<g filter="url(#filter0_d_1_869)">
<path d="M27 1C21.4648 1 17 5.46484 17 11V13H9.09375L9 13.875L5 48.875L4.875 50H49.125L49 48.875L45 13.875L44.9062 13H37V11C37 5.46484 32.5352 1 27 1ZM27 3C31.4648 3 35 6.53516 35 11V13H19V11C19 6.53516 22.5352 3 27 3ZM10.9062 15H17V17.2812C16.4023 17.6289 16 18.2617 16 19C16 20.1055 16.8945 21 18 21C19.1055 21 20 20.1055 20 19C20 18.2617 19.5977 17.6289 19 17.2812V15H35V17.2812C34.4023 17.6289 34 18.2617 34 19C34 20.1055 34.8945 21 36 21C37.1055 21 38 20.1055 38 19C38 18.2617 37.5977 17.6289 37 17.2812V15H43.0938L46.875 48H7.125L10.9062 15Z" fill="black"/>
</g>
<defs>
<filter id="filter0_d_1_869" x="-2" y="0" width="58" height="58" filterUnits="userSpaceOnUse" color-interpolation-filters="sRGB">
<feFlood flood-opacity="0" result="BackgroundImageFix"/>
<feColorMatrix in="SourceAlpha" type="matrix" values="0 0 0 0 0 0 0 0 0 0 0 0 0 0 0 0 0 0 127 0" result="hardAlpha"/>
<feOffset dy="4"/>
<feGaussianBlur stdDeviation="2"/>
<feComposite in2="hardAlpha" operator="out"/>
<feColorMatrix type="matrix" values="0 0 0 0 0 0 0 0 0 0 0 0 0 0 0 0 0 0 0.25 0"/>
<feBlend mode="normal" in2="BackgroundImageFix" result="effect1_dropShadow_1_869"/>
<feBlend mode="normal" in="SourceGraphic" in2="effect1_dropShadow_1_869" result="shape"/>
</filter>
</defs>
</svg>
